<svg width="32" height="32" viewBox="0 0 32 32" fill="none" xmlns="http://www.w3.org/2000/svg">
<rect width="32" height="32" rx="8" fill="#FFF1F3"/>
<path d="M12.3511 15.4995C12.7355 14.065 14.2101 12.5905 15.6446 12.206L24.588 9.80928C26.0225 9.42484 26.8738 10.2761 26.4894 11.7106L24.0926 20.654C23.7082 22.0885 22.2336 23.5631 20.7991 23.9475L11.8557 26.3443C10.4212 26.7287 9.56992 25.8775 9.95436 24.4429L12.3511 15.4995Z" fill="#2859FF"/>
<path d="M8.76516 11.9141C9.1496 10.4796 10.6241 9.005 12.0587 8.62057L21.0021 6.22382C22.4366 5.83939 23.2879 6.69065 22.9034 8.12516L20.5067 17.0686C20.1223 18.5031 18.6477 19.9776 17.2132 20.3621L8.26976 22.7588C6.83524 23.1433 5.98398 22.292 6.36842 20.8575L8.76516 11.9141Z" fill="#175CD3"/>
</svg>
