<svg width="21" height="21" viewBox="0 0 21 21" fill="none" xmlns="http://www.w3.org/2000/svg">
<path d="M6.35104 9.49928C6.73547 8.06476 8.21002 6.59021 9.64454 6.20577L18.588 3.80903C20.0225 3.4246 20.8737 4.27585 20.4893 5.71037L18.0926 14.6538C17.7081 16.0883 16.2336 17.5629 14.7991 17.9473L5.85563 20.344C4.42112 20.7285 3.56986 19.8772 3.95429 18.4427L6.35104 9.49928Z" fill="#2859FF"/>
<path d="M2.7651 5.91383C3.14954 4.47931 4.62409 3.00476 6.0586 2.62032L15.002 0.22358C16.4365 -0.160855 17.2878 0.690404 16.9034 2.12492L14.5066 11.0683C14.1222 12.5029 12.6476 13.9774 11.2131 14.3618L2.2697 16.7586C0.835181 17.143 -0.0160782 16.2918 0.368357 14.8572L2.7651 5.91383Z" fill="#175CD3"/>
</svg>
