<svg width="63" height="63" viewBox="0 0 63 63" fill="none" xmlns="http://www.w3.org/2000/svg">
<path d="M19.321 29.2463C20.4797 24.9228 24.9238 20.4787 29.2473 19.3201L56.2017 12.0965C60.5252 10.9379 63.0908 13.5035 61.9322 17.827L54.7087 44.7814C53.55 49.1049 49.1059 53.549 44.7824 54.7077L17.8279 61.9312C13.5045 63.0898 10.9389 60.5242 12.0975 56.2008L19.321 29.2463Z" fill="#FCFCFD"/>
<path d="M7.90306 17.8244C9.06171 13.501 13.5058 9.05683 17.8293 7.89818L44.7838 0.674662C49.1073 -0.483983 51.6729 2.08162 50.5142 6.40509L43.2907 33.3596C42.1321 37.683 37.6879 42.1272 33.3645 43.2858L6.40997 50.5093C2.0865 51.668 -0.479098 49.1024 0.679547 44.7789L7.90306 17.8244Z" fill="#A4BCFD"/>
</svg>
